<mxfile host="app.diagrams.net" modified="2024-03-08T12:16:33.363Z" agent="Mozilla/5.0 (Windows NT 10.0; Win64; x64) AppleWebKit/537.36 (KHTML, like Gecko) Chrome/122.0.0.0 Safari/537.36" etag="xr1adzNB1IWEg5WqWi5m" version="24.0.1" type="github">
  <diagram name="第 1 页" id="JSmVgA14fJBPbwNzcSOm">
    <mxGraphModel dx="268" dy="159" grid="1" gridSize="10" guides="1" tooltips="1" connect="1" arrows="1" fold="1" page="1" pageScale="1" pageWidth="827" pageHeight="1169" math="1" shadow="0">
      <root>
        <mxCell id="0" />
        <mxCell id="1" parent="0" />
        <mxCell id="qrRYNis3oJ5qUJAQLsxG-1" value="" style="endArrow=none;html=1;rounded=0;strokeWidth=0.5;endSize=3;endFill=0;" edge="1" parent="1">
          <mxGeometry width="50" height="50" relative="1" as="geometry">
            <mxPoint x="90" y="200" as="sourcePoint" />
            <mxPoint x="240" y="200" as="targetPoint" />
          </mxGeometry>
        </mxCell>
        <mxCell id="qrRYNis3oJ5qUJAQLsxG-2" value="" style="endArrow=none;html=1;rounded=0;strokeWidth=0.5;endSize=3;endFill=0;" edge="1" parent="1">
          <mxGeometry width="50" height="50" relative="1" as="geometry">
            <mxPoint x="120" y="230" as="sourcePoint" />
            <mxPoint x="120" y="100" as="targetPoint" />
          </mxGeometry>
        </mxCell>
        <mxCell id="qrRYNis3oJ5qUJAQLsxG-3" value="" style="endArrow=oval;html=1;rounded=0;endFill=1;endSize=2;" edge="1" parent="1">
          <mxGeometry width="50" height="50" relative="1" as="geometry">
            <mxPoint x="120" y="200" as="sourcePoint" />
            <mxPoint x="210" y="140" as="targetPoint" />
          </mxGeometry>
        </mxCell>
        <mxCell id="qrRYNis3oJ5qUJAQLsxG-4" value="" style="curved=1;endArrow=none;html=1;rounded=0;endFill=0;strokeWidth=0.5;" edge="1" parent="1">
          <mxGeometry width="50" height="50" relative="1" as="geometry">
            <mxPoint x="140" y="200" as="sourcePoint" />
            <mxPoint x="136" y="189" as="targetPoint" />
            <Array as="points">
              <mxPoint x="142" y="193" />
            </Array>
          </mxGeometry>
        </mxCell>
        <mxCell id="qrRYNis3oJ5qUJAQLsxG-5" value="" style="endArrow=classic;html=1;rounded=0;endSize=2;" edge="1" parent="1">
          <mxGeometry width="50" height="50" relative="1" as="geometry">
            <mxPoint x="210" y="140" as="sourcePoint" />
            <mxPoint x="225" y="130" as="targetPoint" />
          </mxGeometry>
        </mxCell>
        <mxCell id="qrRYNis3oJ5qUJAQLsxG-6" value="" style="endArrow=classic;html=1;rounded=0;endSize=2;" edge="1" parent="1">
          <mxGeometry width="50" height="50" relative="1" as="geometry">
            <mxPoint x="210" y="140" as="sourcePoint" />
            <mxPoint x="200" y="125" as="targetPoint" />
          </mxGeometry>
        </mxCell>
        <mxCell id="qrRYNis3oJ5qUJAQLsxG-7" value="&lt;font style=&quot;font-size: 10px;&quot;&gt;\(\varphi\)&lt;/font&gt;" style="text;html=1;align=center;verticalAlign=middle;whiteSpace=wrap;rounded=0;" vertex="1" parent="1">
          <mxGeometry x="117" y="181" width="60" height="20" as="geometry" />
        </mxCell>
        <mxCell id="qrRYNis3oJ5qUJAQLsxG-9" value="&lt;font style=&quot;font-size: 10px;&quot;&gt;$$r$$&lt;/font&gt;" style="text;html=1;align=center;verticalAlign=middle;whiteSpace=wrap;rounded=0;" vertex="1" parent="1">
          <mxGeometry x="131" y="145" width="60" height="30" as="geometry" />
        </mxCell>
        <mxCell id="qrRYNis3oJ5qUJAQLsxG-10" value="&lt;font style=&quot;font-size: 10px;&quot;&gt;$$\hat{e}_r$$&lt;/font&gt;" style="text;html=1;align=center;verticalAlign=middle;whiteSpace=wrap;rounded=0;" vertex="1" parent="1">
          <mxGeometry x="198" y="124" width="60" height="30" as="geometry" />
        </mxCell>
        <mxCell id="qrRYNis3oJ5qUJAQLsxG-11" value="&lt;font style=&quot;font-size: 10px;&quot;&gt;$$\hat{e}_\varphi$$&lt;/font&gt;" style="text;html=1;align=center;verticalAlign=middle;whiteSpace=wrap;rounded=0;" vertex="1" parent="1">
          <mxGeometry x="163" y="108" width="60" height="30" as="geometry" />
        </mxCell>
      </root>
    </mxGraphModel>
  </diagram>
</mxfile>
